<svg width="24" height="24" viewBox="0 0 24 24" fill="none" xmlns="http://www.w3.org/2000/svg">
<path d="M4.2012 9.09611H19.8012L18.884 5.90361H5.14345L4.2012 9.09611ZM16.907 10.5959H7.1107L6.79745 12.9614H17.2147L16.907 10.5959ZM4.4147 19.5094L5.62045 10.5959H3.3282C3.05253 10.5959 2.83328 10.485 2.67045 10.2634C2.50762 10.0415 2.46145 9.79794 2.53195 9.53261L3.83195 5.00361C3.88578 4.81911 3.9832 4.67136 4.1242 4.56036C4.26537 4.44953 4.43337 4.39736 4.6282 4.40386H19.384C19.5788 4.40386 19.7467 4.45928 19.8877 4.57011C20.0287 4.68094 20.1261 4.82869 20.18 5.01336L21.48 9.53261C21.5505 9.79794 21.5043 10.0415 21.3415 10.2634C21.1786 10.485 20.9595 10.5959 20.684 10.5959H18.3972L19.5877 19.5094H18.0975L17.4127 14.4614H6.5897L5.90495 19.5094H4.4147Z" fill="black"/>
</svg>
