<svg width="24" height="24" viewBox="0 0 24 24" fill="none" xmlns="http://www.w3.org/2000/svg">
<path d="M4.26144 20.7307L2.49219 18.9615H21.4919L19.7229 20.7307H4.26144ZM3.50169 17.8652C3.60819 17.5909 3.74635 17.3333 3.91619 17.0922C4.08602 16.8513 4.28119 16.6269 4.50169 16.4193V8.76925H3.50169V7.577H4.50169V6.73075H3.50169V5.5385H4.50169V4.69225H3.50169V3.5H10.0979C10.5949 3.5 11.0204 3.677 11.3744 4.031C11.7284 4.385 11.9054 4.81058 11.9054 5.30775V5.5385H20.5017V6.73075H11.9054V6.9585C11.9054 7.45917 11.7284 7.88617 11.3744 8.2395C11.0204 8.59267 10.5949 8.76925 10.0979 8.76925H8.19394V15.2348C8.50427 15.2808 8.80977 15.3547 9.11044 15.4567C9.4111 15.5588 9.69027 15.7053 9.94794 15.8963C10.2466 14.8514 10.8324 14.0098 11.7054 13.3713C12.5786 12.7327 13.5614 12.4135 14.6537 12.4135C15.9942 12.4135 17.1373 12.873 18.0829 13.792C19.0288 14.711 19.5017 15.8354 19.5017 17.1652V17.8652H3.50169ZM11.4287 16.3655H17.7864C17.6119 15.65 17.2353 15.0625 16.6564 14.603C16.0776 14.1433 15.41 13.9135 14.6537 13.9135C13.8767 13.9135 13.1885 14.1382 12.5892 14.5875C11.9899 15.0368 11.603 15.6295 11.4287 16.3655ZM8.19394 5.5385H10.4057V5C10.4057 4.91033 10.3768 4.83658 10.3189 4.77875C10.2613 4.72108 10.1876 4.69225 10.0979 4.69225H8.19394V5.5385ZM8.19394 7.577H10.0979C10.1876 7.577 10.2613 7.54817 10.3189 7.4905C10.3768 7.43267 10.4057 7.35892 10.4057 7.26925V6.73075H8.19394V7.577ZM5.69394 5.5385H7.00169V4.69225H5.69394V5.5385ZM5.69394 7.577H7.00169V6.73075H5.69394V7.577ZM5.69394 15.5905C5.9056 15.4815 6.11777 15.3982 6.33044 15.3405C6.54327 15.2827 6.76702 15.2361 7.00169 15.2008V8.76925H5.69394V15.5905Z" fill="black"/>
</svg>
