<svg width="20" height="20" viewBox="0 0 20 20" fill="none" xmlns="http://www.w3.org/2000/svg">
<path d="M12.6762 0L14.3095 2.52857L17.319 2.67619L17.4714 5.68571L20 7.31905L18.6286 10L20 12.6762L17.4714 14.3095L17.3238 17.319L14.3143 17.4714L12.681 20L10 18.6286L7.32381 20L5.69048 17.4714L2.68095 17.3238L2.52857 14.3143L0 12.681L1.37143 10L0 7.32381L2.52857 5.69048L2.67619 2.68095L5.68571 2.52857L7.31905 0L10 1.37143L12.6762 0Z" fill="#5C4300"/>
<path d="M9.09048 13.419L6 10.3286L7.00952 9.31905L9.10952 11.4143L13.6619 7L14.6571 8.02381L9.09048 13.419Z" fill="white"/>
</svg>
