<svg width="24" height="24" viewBox="0 0 24 24" fill="none" xmlns="http://www.w3.org/2000/svg">
<g clip-path="url(#clip0_563_8728)">
<path d="M4.30089 22.2752C4.18389 22.9412 4.84089 23.4617 5.41989 23.1647L12.0049 19.7807L18.5884 23.1647C19.1674 23.4617 19.8244 22.9412 19.7074 22.2767L18.4624 15.1817L23.7454 10.1477C24.2404 9.67675 23.9854 8.81575 23.3224 8.72275L15.9754 7.67875L12.6994 1.18825C12.637 1.05668 12.5385 0.945525 12.4155 0.867689C12.2924 0.789853 12.1498 0.748535 12.0041 0.748535C11.8585 0.748535 11.7159 0.789853 11.5928 0.867689C11.4698 0.945525 11.3713 1.05668 11.3089 1.18825L8.03289 7.68025L0.685886 8.72425C0.0243864 8.81725 -0.232114 9.67825 0.261386 10.1493L5.54589 15.1832L4.30089 22.2782V22.2752ZM11.6584 18.1248L6.12939 20.9657L7.17039 15.0302C7.19477 14.8936 7.18523 14.7531 7.1426 14.621C7.09997 14.4889 7.02555 14.3693 6.92589 14.2727L2.56689 10.1178L8.64489 9.25375C8.77074 9.23475 8.89012 9.18551 8.99279 9.11028C9.09545 9.03504 9.17835 8.93604 9.23439 8.82175L12.0019 3.33475L14.7724 8.82175C14.8284 8.93604 14.9113 9.03504 15.014 9.11028C15.1167 9.18551 15.236 9.23475 15.3619 9.25375L21.4399 10.1163L17.0809 14.2712C16.981 14.368 16.9064 14.4878 16.8638 14.6202C16.8212 14.7526 16.8117 14.8934 16.8364 15.0302L17.8774 20.9657L12.3484 18.1248C12.2415 18.0696 12.1229 18.0409 12.0026 18.0409C11.8823 18.0409 11.7638 18.0696 11.6569 18.1248H11.6584Z" fill="black"/>
</g>
<defs>
<clipPath id="clip0_563_8728">
<rect width="24" height="24" fill="white"/>
</clipPath>
</defs>
</svg>
