<svg width="24" height="24" viewBox="0 0 24 24" fill="none" xmlns="http://www.w3.org/2000/svg">
<path d="M4.24916 18.5579C3.74399 18.5579 3.31641 18.3829 2.96641 18.0329C2.61641 17.6829 2.44141 17.2553 2.44141 16.7501V7.25013C2.44141 6.74497 2.61641 6.31738 2.96641 5.96738C3.31641 5.61738 3.74399 5.44238 4.24916 5.44238H19.7492C20.2543 5.44238 20.6819 5.61738 21.0319 5.96738C21.3819 6.31738 21.5569 6.74497 21.5569 7.25013V16.7501C21.5569 17.2553 21.3819 17.6829 21.0319 18.0329C20.6819 18.3829 20.2543 18.5579 19.7492 18.5579H4.24916ZM13.6529 11.2501H20.0569V7.25013C20.0569 7.1733 20.0248 7.1028 19.9607 7.03863C19.8965 6.97447 19.826 6.94238 19.7492 6.94238H13.6529V11.2501ZM4.24916 17.0579H12.1529V6.94238H4.24916C4.17232 6.94238 4.10182 6.97447 4.03766 7.03863C3.97349 7.1028 3.94141 7.1733 3.94141 7.25013V16.7501C3.94141 16.827 3.97349 16.8975 4.03766 16.9616C4.10182 17.0258 4.17232 17.0579 4.24916 17.0579ZM7.99916 13.2694C7.64666 13.2694 7.34699 13.146 7.10016 12.8991C6.85332 12.6523 6.72991 12.3526 6.72991 12.0001C6.72991 11.6476 6.85332 11.348 7.10016 11.1011C7.34699 10.8543 7.64666 10.7309 7.99916 10.7309C8.35166 10.7309 8.65132 10.8543 8.89816 11.1011C9.14499 11.348 9.26841 11.6476 9.26841 12.0001C9.26841 12.3526 9.14499 12.6523 8.89816 12.8991C8.65132 13.146 8.35166 13.2694 7.99916 13.2694ZM13.6529 17.0579H19.7492C19.826 17.0579 19.8965 17.0258 19.9607 16.9616C20.0248 16.8975 20.0569 16.827 20.0569 16.7501V12.7501H13.6529V17.0579Z" fill="black"/>
</svg>
