<svg width="16" height="16" viewBox="0 0 16 16" fill="none" xmlns="http://www.w3.org/2000/svg">
<path d="M7.24848 11.14L2.45248 5.658C1.88648 5.013 2.34648 4 3.20548 4H12.7975C12.9897 3.99984 13.1779 4.05509 13.3396 4.15914C13.5012 4.26319 13.6295 4.41164 13.7089 4.58669C13.7884 4.76175 13.8157 4.956 13.7876 5.14618C13.7595 5.33636 13.6772 5.51441 13.5505 5.659L8.75448 11.139C8.66062 11.2464 8.54486 11.3325 8.41499 11.3915C8.28511 11.4505 8.14412 11.481 8.00148 11.481C7.85883 11.481 7.71784 11.4505 7.58797 11.3915C7.45809 11.3325 7.34234 11.2464 7.24848 11.139V11.14Z" fill="black"/>
</svg>
