<svg width="24" height="24" viewBox="0 0 24 24" fill="none" xmlns="http://www.w3.org/2000/svg">
<path fill-rule="evenodd" clip-rule="evenodd" d="M20.7819 3.21888C20.8518 3.28854 20.9072 3.37131 20.945 3.46243C20.9828 3.55354 21.0023 3.65122 21.0023 3.74988C21.0023 3.84853 20.9828 3.94621 20.945 4.03733C20.9072 4.12844 20.8518 4.21121 20.7819 4.28088L4.28195 20.7809C4.14112 20.9217 3.95011 21.0008 3.75095 21.0008C3.55178 21.0008 3.36078 20.9217 3.21995 20.7809C3.07912 20.64 3 20.449 3 20.2499C3 20.0507 3.07912 19.8597 3.21995 19.7189L19.7199 3.21888C19.7896 3.14903 19.8724 3.09362 19.9635 3.05581C20.0546 3.018 20.1523 2.99854 20.2509 2.99854C20.3496 2.99854 20.4473 3.018 20.5384 3.05581C20.6295 3.09362 20.7123 3.14903 20.7819 3.21888Z" fill="black"/>
<path fill-rule="evenodd" clip-rule="evenodd" d="M3.22034 3.21888C3.1505 3.28854 3.09508 3.37131 3.05727 3.46243C3.01946 3.55354 3 3.65122 3 3.74988C3 3.84853 3.01946 3.94621 3.05727 4.03733C3.09508 4.12844 3.1505 4.21121 3.22034 4.28088L19.7203 20.7809C19.8612 20.9217 20.0522 21.0008 20.2513 21.0008C20.4505 21.0008 20.6415 20.9217 20.7823 20.7809C20.9232 20.64 21.0023 20.449 21.0023 20.2499C21.0023 20.0507 20.9232 19.8597 20.7823 19.7189L4.28234 3.21888C4.21267 3.14903 4.12991 3.09362 4.03879 3.05581C3.94767 3.018 3.84999 2.99854 3.75134 2.99854C3.65269 2.99854 3.55501 3.018 3.46389 3.05581C3.37277 3.09362 3.29001 3.14903 3.22034 3.21888Z" fill="black"/>
</svg>
