<svg width="24" height="24" viewBox="0 0 24 24" fill="none" xmlns="http://www.w3.org/2000/svg">
<path d="M2.24859 18.7499V17.2499H21.7486V18.7499H2.24859ZM3.09084 12.7384L2.06009 12.1422L2.96784 10.5462H1.15234V9.35368H2.96784L2.06009 7.80768L3.09084 7.21143L3.99859 8.75768L4.90634 7.21143L5.93709 7.80768L5.02934 9.35368H6.84484V10.5462H5.02934L5.93709 12.1422L4.90634 12.7384L3.99859 11.1422L3.09084 12.7384ZM11.0908 12.7384L10.0601 12.1422L10.9678 10.5462H9.15234V9.35368H10.9678L10.0601 7.80768L11.0908 7.21143L11.9986 8.75768L12.9063 7.21143L13.9371 7.80768L13.0293 9.35368H14.8448V10.5462H13.0293L13.9371 12.1422L12.9063 12.7384L11.9986 11.1422L11.0908 12.7384ZM19.0908 12.7384L18.0601 12.1422L18.9678 10.5462H17.1523V9.35368H18.9678L18.0601 7.80768L19.0908 7.21143L19.9986 8.75768L20.9063 7.21143L21.9371 7.80768L21.0293 9.35368H22.8448V10.5462H21.0293L21.9371 12.1422L20.9063 12.7384L19.9986 11.1422L19.0908 12.7384Z" fill="black"/>
</svg>
