<svg width="24" height="24" viewBox="0 0 24 24" fill="none" xmlns="http://www.w3.org/2000/svg">
<path d="M6.59541 22.8079V18.5579H5.69141C5.06141 18.5579 4.52891 18.3404 4.09391 17.9054C3.65891 17.4706 3.44141 16.9382 3.44141 16.3084C3.44141 15.6785 3.65891 15.146 4.09391 14.7106C4.52891 14.2755 5.06141 14.0579 5.69141 14.0579H6.59541V12.7501H3.44141V8.25013H6.59541V6.94238H5.69141C5.06141 6.94238 4.52891 6.72497 4.09391 6.29013C3.65891 5.8553 3.44141 5.32288 3.44141 4.69288C3.44141 4.06305 3.65891 3.53055 4.09391 3.09538C4.52891 2.66005 5.06141 2.44238 5.69141 2.44238H6.59541V1.19238H7.78766V2.44238H8.69141C9.32141 2.44238 9.85391 2.65988 10.2889 3.09488C10.7239 3.52972 10.9414 4.06205 10.9414 4.69188C10.9414 5.32172 10.7239 5.8543 10.2889 6.28963C9.85391 6.7248 9.32141 6.94238 8.69141 6.94238H7.78766V8.25013H10.9414V12.7501H7.78766V14.0579H8.69141C9.32141 14.0579 9.85391 14.2753 10.2889 14.7101C10.7239 15.145 10.9414 15.6774 10.9414 16.3074C10.9414 16.9372 10.7239 17.4697 10.2889 17.9049C9.85391 18.3402 9.32141 18.5579 8.69141 18.5579H7.78766V22.8079H6.59541ZM16.2107 22.8079V18.5579H15.3069C14.6769 18.5579 14.1444 18.3404 13.7094 17.9054C13.2744 17.4706 13.0569 16.9382 13.0569 16.3084C13.0569 15.6785 13.2744 15.146 13.7094 14.7106C14.1444 14.2755 14.6769 14.0579 15.3069 14.0579H16.2107V12.7501H13.0569V8.25013H16.2107V6.94238H15.3069C14.6769 6.94238 14.1444 6.72497 13.7094 6.29013C13.2744 5.8553 13.0569 5.32288 13.0569 4.69288C13.0569 4.06305 13.2744 3.53055 13.7094 3.09538C14.1444 2.66005 14.6769 2.44238 15.3069 2.44238H16.2107V1.19238H17.4029V2.44238H18.3069C18.9369 2.44238 19.4694 2.65988 19.9044 3.09488C20.3394 3.52972 20.5569 4.06205 20.5569 4.69188C20.5569 5.32172 20.3394 5.8543 19.9044 6.28963C19.4694 6.7248 18.9369 6.94238 18.3069 6.94238H17.4029V8.25013H20.5569V12.7501H17.4029V14.0579H18.3069C18.9369 14.0579 19.4694 14.2753 19.9044 14.7101C20.3394 15.145 20.5569 15.6774 20.5569 16.3074C20.5569 16.9372 20.3394 17.4697 19.9044 17.9049C19.4694 18.3402 18.9369 18.5579 18.3069 18.5579H17.4029V22.8079H16.2107ZM5.69141 5.44238H8.69141C8.89524 5.44238 9.07124 5.36838 9.21941 5.22038C9.36741 5.07222 9.44141 4.89622 9.44141 4.69238C9.44141 4.48855 9.36741 4.31263 9.21941 4.16463C9.07124 4.01647 8.89524 3.94238 8.69141 3.94238H5.69141C5.48757 3.94238 5.31166 4.01647 5.16366 4.16463C5.01549 4.31263 4.94141 4.48855 4.94141 4.69238C4.94141 4.89622 5.01549 5.07222 5.16366 5.22038C5.31166 5.36838 5.48757 5.44238 5.69141 5.44238ZM15.3069 5.44238H18.3069C18.5107 5.44238 18.6867 5.36838 18.8347 5.22038C18.9828 5.07222 19.0569 4.89622 19.0569 4.69238C19.0569 4.48855 18.9828 4.31263 18.8347 4.16463C18.6867 4.01647 18.5107 3.94238 18.3069 3.94238H15.3069C15.1031 3.94238 14.9271 4.01647 14.7789 4.16463C14.6309 4.31263 14.5569 4.48855 14.5569 4.69238C14.5569 4.89622 14.6309 5.07222 14.7789 5.22038C14.9271 5.36838 15.1031 5.44238 15.3069 5.44238ZM4.94141 11.2501H9.44141V9.75013H4.94141V11.2501ZM14.5569 11.2501H19.0569V9.75013H14.5569V11.2501ZM5.69141 17.0579H8.69141C8.89524 17.0579 9.07124 16.9838 9.21941 16.8356C9.36741 16.6876 9.44141 16.5117 9.44141 16.3079C9.44141 16.104 9.36741 15.9281 9.21941 15.7799C9.07124 15.6319 8.89524 15.5579 8.69141 15.5579H5.69141C5.48757 15.5579 5.31166 15.6319 5.16366 15.7799C5.01549 15.9281 4.94141 16.104 4.94141 16.3079C4.94141 16.5117 5.01549 16.6876 5.16366 16.8356C5.31166 16.9838 5.48757 17.0579 5.69141 17.0579ZM15.3069 17.0579H18.3069C18.5107 17.0579 18.6867 16.9838 18.8347 16.8356C18.9828 16.6876 19.0569 16.5117 19.0569 16.3079C19.0569 16.104 18.9828 15.9281 18.8347 15.7799C18.6867 15.6319 18.5107 15.5579 18.3069 15.5579H15.3069C15.1031 15.5579 14.9271 15.6319 14.7789 15.7799C14.6309 15.9281 14.5569 16.104 14.5569 16.3079C14.5569 16.5117 14.6309 16.6876 14.7789 16.8356C14.9271 16.9838 15.1031 17.0579 15.3069 17.0579Z" fill="black"/>
</svg>
